<?xml version="1.0" encoding="UTF-8"?>
<svg width="64" height="64" version="1.1" viewBox="0 0 16.933 16.933" xmlns="http://www.w3.org/2000/svg" xmlns:cc="http://creativecommons.org/ns#" xmlns:dc="http://purl.org/dc/elements/1.1/" xmlns:rdf="http://www.w3.org/1999/02/22-rdf-syntax-ns#">
 <defs>
  <linearGradient id="linearGradient1053" x1="6.7203" x2="6.7203" y1="6.6145" y2="5.027" gradientTransform="matrix(1.6923 0 0 1.6667 -6.1872 -6.5265)" gradientUnits="userSpaceOnUse">
   <stop stop-color="#585858" offset="0"/>
   <stop stop-color="#6f6f6f" offset=".71429"/>
   <stop stop-color="#9b9b9b" offset="1"/>
  </linearGradient>
  <linearGradient id="linearGradient1027" x1="25" x2="15" y1="40" y2="40" gradientUnits="userSpaceOnUse">
   <stop stop-color="#585858" offset="0"/>
   <stop stop-color="#6f6f6f" offset=".57214"/>
   <stop stop-color="#9b9b9b" offset="1"/>
  </linearGradient>
  <linearGradient id="linearGradient1045" x1="35" x2="35" y1="35" y2="25" gradientTransform="matrix(.26458 0 0 .26458 0 1.7461)" gradientUnits="userSpaceOnUse">
   <stop stop-color="#585858" offset="0"/>
   <stop stop-color="#6f6f6f" offset=".57214"/>
   <stop stop-color="#9b9b9b" offset="1"/>
  </linearGradient>
  <radialGradient id="radialGradient1037" cx="25" cy="35" r="5" gradientTransform="matrix(-2.2211e-7 -.52916 .52916 -4.3473e-8 -11.906 24.235)" gradientUnits="userSpaceOnUse">
   <stop stop-color="#585858" offset="0"/>
   <stop stop-color="#6f6f6f" offset=".57214"/>
   <stop stop-color="#9b9b9b" offset="1"/>
  </radialGradient>
 </defs>
 <metadata>
  <rdf:RDF>
   <cc:Work rdf:about="">
    <dc:format>image/svg+xml</dc:format>
    <dc:type rdf:resource="http://purl.org/dc/dcmitype/StillImage"/>
    <dc:title/>
   </cc:Work>
  </rdf:RDF>
 </metadata>
 <path d="m2.8573 1.8517h6.9849c1.397 0 2.3283 2.6458 2.3283 2.6458v5.7325c0 1.2215-1.0384 2.2048-2.3283 2.2048h-6.9849c-1.2899 0-2.3283-0.98334-2.3283-2.2048v-6.1735c0-1.2215 1.0384-2.2048 2.3283-2.2048z" color="#000000" color-rendering="auto" dominant-baseline="auto" fill="url(#linearGradient1053)" image-rendering="auto" shape-rendering="auto" solid-color="#000000" stop-color="#000000" stroke-width="1.7127" style="font-feature-settings:normal;font-variant-alternates:normal;font-variant-caps:normal;font-variant-east-asian:normal;font-variant-ligatures:normal;font-variant-numeric:normal;font-variant-position:normal;font-variation-settings:normal;inline-size:0;isolation:auto;mix-blend-mode:normal;shape-margin:0;shape-padding:0;text-decoration-color:#000000;text-decoration-line:none;text-decoration-style:solid;text-indent:0;text-orientation:mixed;text-transform:none;white-space:normal"/>
 <path d="m0.52908 4.4976v8.3782c0 1.2215 1.0414 2.205 2.3347 2.205h11.205c1.2933 0 2.3347-0.98352 2.3347-2.205v-6.1732c0-1.2215-1.0414-2.205-2.3347-2.205h-13.54z" fill="#585858" stroke-width=".43206"/>
 <rect x="1.5875" y="5.5561" width="13.758" height="7.4082" ry="1.852" fill="#fff" stroke-linecap="round" stroke-linejoin="round" stroke-width=".53964"/>
 <rect x=".52916" y="7.4082" width="15.875" height="7.6728" ry="2.3812" fill="#585858" stroke-linecap="round" stroke-linejoin="round" stroke-width=".58992"/>
 <g transform="matrix(1.7647 0 0 1.6667 -6.4745 -6.5265)" stroke-width=".95219">
  <path transform="scale(.26458)" d="m49 34.6h-34v9.4004c0 2.77 2.23 5 5 5h24c2.77 0 5-2.23 5-5z" fill="url(#linearGradient1027)"/>
  <path d="m6.5175 8.3606v2.6458h6.4469v-1.3229c0-0.73289-0.59001-1.3229-1.3229-1.3229z" fill="url(#linearGradient1045)" stroke-width=".25193"/>
  <path d="m3.9687 8.3606v2.6458h2.6458v-2.6458h-1.3229z" fill="url(#radialGradient1037)" stroke-width=".25193"/>
 </g>
</svg>
